<svg width="118" height="15" viewBox="0 0 118 15" fill="none" xmlns="http://www.w3.org/2000/svg">
<path d="M9.3 6.4L7.2 13.9H3.8L0 0.6H3.4L5.7 9.8H5.8L8.2 0.6H10.5L12.9 9.8H13L15.3 0.6H18.7L14.9 14H11.5L9.3 6.4Z" fill="white"/>
<path d="M19.4 0H22.3V6.5C22.9 5.9 23.8 5.4 24.7 5.4C26.2 5.4 28.3 6.2 28.3 8.5V14H25.4V9.2C25.4 8.4 24.8 7.6 23.9 7.6C23 7.6 22.2 8.4 22.2 9.2V13.9H19.3V0H19.4Z" fill="white"/>
<path d="M33.6 5.4C34.7 5.4 35.6 5.8 36.3 6.4V5.6H39.2V13.9H36.4V13C35.8 13.7 34.8 14.2 33.7 14.2C31.3 14.2 29.6 12.2 29.6 9.8C29.6 7.4 31.2 5.4 33.6 5.4ZM34.5 11.7C35.6 11.7 36.4 10.9 36.4 9.8C36.4 8.7 35.5 7.8 34.5 7.8C33.4 7.8 32.6 8.6 32.6 9.8C32.5 10.9 33.3 11.7 34.5 11.7Z" fill="white"/>
<path d="M41.5 2.5H44.4V5.6H46.1V7.8H44.4V10.4C44.4 11.2 44.6 11.5 45 11.5C45.4 11.5 45.7 11.2 45.7 11.2L46.4 13.5C46.4 13.5 45.5 14 44.3 14C42 14 41.5 12.3 41.5 10.8V7.8H40.3V5.6H41.5V2.5V2.5Z" fill="white"/>
<path d="M46.6 0.6H56V3.3H52.8V14H49.8V3.2H46.6V0.6V0.6Z" fill="white"/>
<path d="M57.1 0H60V6.5C60.6 5.9 61.5 5.4 62.4 5.4C63.9 5.4 66 6.2 66 8.5V14H63.1V9.2C63.1 8.4 62.5 7.6 61.6 7.6C60.7 7.6 59.9 8.4 59.9 9.2V13.9H57V0H57.1Z" fill="white"/>
<path d="M70.2 10.2C70.2 11.5 71.3 11.9 72 11.9C72.9 11.9 73.3 11.7 74 11L76.1 12C75.2 13.6 73.6 14.2 71.8 14.2C69.3 14.2 67.2 12.2 67.2 9.8C67.2 7.4 69.3 5.4 71.8 5.4C74.3 5.4 76.3 6.9 76.3 9.8C76.3 9.9 76.3 10.1 76.3 10.2H70.2ZM73.4 8.6C73.3 7.7 72.7 7.3 71.8 7.3C70.8 7.3 70.3 7.9 70.2 8.6H73.4Z" fill="white"/>
<path d="M81.7 0.6C84 0.6 85.8 1.5 85.8 4C85.8 5.2 85.3 6.3 84.1 6.9C85.8 7.1 87 8 87 10.2C87 12.4 85.4 13.9 82.6 13.9H77.5V0.6H81.7ZM80.8 5.8C82.1 5.8 82.8 5.4 82.8 4.3C82.8 3.3 82.1 2.9 80.8 2.9H80.6V5.8H80.8ZM81.5 11.6C82.9 11.6 83.7 11.2 83.7 10.1C83.7 8.9 82.9 8.4 81.5 8.4H80.5V11.6H81.5V11.6Z" fill="white"/>
<path d="M90.7 10.2C90.7 11.5 91.8 11.9 92.5 11.9C93.4 11.9 93.8 11.7 94.5 11L96.6 12C95.7 13.6 94.1 14.2 92.3 14.2C89.8 14.2 87.7 12.2 87.7 9.8C87.7 7.4 89.8 5.4 92.3 5.4C94.8 5.4 96.8 6.9 96.8 9.8C96.8 9.9 96.8 10.1 96.8 10.2H90.7ZM94 8.6C93.9 7.7 93.3 7.3 92.4 7.3C91.4 7.3 90.9 7.9 90.8 8.6H94Z" fill="white"/>
<path d="M101.5 5.4C102.6 5.4 103.5 5.8 104.2 6.4V5.6H107.1V13.9H104.3V13C103.7 13.7 102.7 14.2 101.6 14.2C99.2 14.2 97.5 12.2 97.5 9.8C97.5 7.4 99.1 5.4 101.5 5.4ZM102.4 11.7C103.5 11.7 104.3 10.9 104.3 9.8C104.3 8.7 103.4 7.8 102.4 7.8C101.3 7.8 100.5 8.6 100.5 9.8C100.5 10.9 101.2 11.7 102.4 11.7Z" fill="white"/>
<path d="M109.1 5.6H112V6.5C112.6 5.9 113.5 5.4 114.4 5.4C115.9 5.4 118 6.2 118 8.5V14H115.1V9.2C115.1 8.4 114.5 7.6 113.6 7.6C112.7 7.6 111.9 8.4 111.9 9.2V13.9H109V5.6H109.1Z" fill="white"/>
</svg>
